Normalized EMG Linear Envelopes
nRows=261
nColumns=4

endheader
time	 med_gas_r	  soleus_r	 tib_ant_r	
3.39293	  0.055198	  0.097065	  0.031208	
3.42619	  0.054785	  0.095644	  0.030294	
3.45946	  0.054441	  0.094692	  0.029500	
3.49272	  0.054087	  0.094414	  0.028909	
3.52598	  0.053750	  0.094476	  0.028560	
3.55925	  0.053541	  0.094569	  0.028486	
3.59251	  0.053512	  0.094451	  0.028669	
3.62578	  0.053516	  0.094208	  0.029020	
3.65904	  0.053212	  0.093966	  0.029399	
3.6923	  0.052522	  0.093294	  0.029637	
3.72557	  0.051547	  0.091791	  0.029638	
3.75883	  0.050471	  0.089687	  0.029481	
3.7921	  0.049630	  0.087434	  0.029420	
3.82536	  0.049185	  0.085548	  0.029591	
3.85862	  0.049180	  0.084493	  0.030057	
3.89189	  0.049715	  0.084349	  0.030772	
3.92515	  0.050792	  0.084946	  0.031589	
3.95842	  0.052197	  0.086228	  0.032403	
3.99168	  0.053511	  0.087989	  0.033059	
4.02494	  0.054297	  0.089801	  0.033437	
4.05821	  0.054256	  0.090888	  0.033486	
4.09147	  0.053581	  0.090825	  0.033258	
4.12474	  0.052832	  0.090052	  0.032829	
4.158	  0.052461	  0.089229	  0.032339	
4.19126	  0.052652	  0.088739	  0.031891	
4.22453	  0.053291	  0.088841	  0.031508	
4.25779	  0.054153	  0.089734	  0.031203	
4.29106	  0.055113	  0.091457	  0.030980	
4.32432	  0.056153	  0.093752	  0.030708	
4.35758	  0.057155	  0.096297	  0.030318	
4.39085	  0.057882	  0.098820	  0.029794	
4.42411	  0.058224	  0.101078	  0.029161	
4.45738	  0.058190	  0.102552	  0.028545	
4.49064	  0.057666	  0.102865	  0.028071	
4.5239	  0.056677	  0.101832	  0.027855	
4.55717	  0.055527	  0.099489	  0.027938	
4.59043	  0.054468	  0.096273	  0.028233	
4.6237	  0.053731	  0.092674	  0.028700	
4.65696	  0.053515	  0.089172	  0.029326	
4.69022	  0.053732	  0.086230	  0.030057	
4.72349	  0.054026	  0.084155	  0.030814	
4.75675	  0.054170	  0.083138	  0.031516	
4.79002	  0.054153	  0.083083	  0.032063	
4.82328	  0.054312	  0.083810	  0.032418	
4.85654	  0.054886	  0.085029	  0.032611	
4.88981	  0.055967	  0.086533	  0.032758	
4.92307	  0.057359	  0.088274	  0.032941	
4.95634	  0.058637	  0.090166	  0.033194	
4.9896	  0.059379	  0.091957	  0.033486	
5.02286	  0.059674	  0.093478	  0.033752	
5.05613	  0.059773	  0.094299	  0.033806	
5.08939	  0.059684	  0.094090	  0.033498	
5.12266	  0.059356	  0.093082	  0.032884	
5.15592	  0.058831	  0.091828	  0.032182	
5.18918	  0.058099	  0.090729	  0.031592	
5.22245	  0.057268	  0.089997	  0.031317	
5.25571	  0.056573	  0.089658	  0.031393	
5.28898	  0.056138	  0.089637	  0.031692	
5.32224	  0.055932	  0.089847	  0.032101	
5.3555	  0.055742	  0.090354	  0.032517	
5.38877	  0.055372	  0.091070	  0.032838	
5.42203	  0.054915	  0.091755	  0.032953	
5.4553	  0.054677	  0.092258	  0.032905	
5.48856	  0.054779	  0.092501	  0.032732	
5.52182	  0.055072	  0.092367	  0.032356	
5.55509	  0.055377	  0.091746	  0.031675	
5.58835	  0.055588	  0.090524	  0.030524	
5.62162	  0.055755	  0.088927	  0.029010	
5.65488	  0.055717	  0.087511	  0.027273	
5.68814	  0.055406	  0.086822	  0.025475	
5.72141	  0.055021	  0.087181	  0.023950	
5.75467	  0.054848	  0.088458	  0.023130	
5.78794	  0.055304	  0.090298	  0.023584	
5.8212	  0.056685	  0.092331	  0.026015	
5.85446	  0.058967	  0.094443	  0.031232	
5.88773	  0.061860	  0.096725	  0.040097	
5.92099	  0.065111	  0.099292	  0.053531	
5.95426	  0.068585	  0.102311	  0.072059	
5.98752	  0.071775	  0.105886	  0.095506	
6.02078	  0.074000	  0.110067	  0.123184	
6.05405	  0.075336	  0.114622	  0.153760	
6.08731	  0.076103	  0.118905	  0.185963	
6.12058	  0.076809	  0.122889	  0.221721	
6.15384	  0.077909	  0.127299	  0.265155	
6.1871	  0.079330	  0.132715	  0.316824	
6.22037	  0.080618	  0.139164	  0.372349	
6.25363	  0.081447	  0.146034	  0.424406	
6.2869	  0.081526	  0.152923	  0.468181	
6.32016	  0.080889	  0.160261	  0.504250	
6.35342	  0.079866	  0.167596	  0.531844	
6.38669	  0.079136	  0.173567	  0.546891	
6.41995	  0.079129	  0.177390	  0.549615	
6.45322	  0.079890	  0.178610	  0.542410	
6.48648	  0.081378	  0.177483	  0.525967	
6.51974	  0.083819	  0.174744	  0.503971	
6.55301	  0.087333	  0.171816	  0.478700	
6.58627	  0.091360	  0.169575	  0.449146	
6.61954	  0.095057	  0.168183	  0.416665	
6.6528	  0.097537	  0.167358	  0.385297	
6.68606	  0.098270	  0.167088	  0.357373	
6.71933	  0.097469	  0.167350	  0.333178	
6.75259	  0.095860	  0.168435	  0.311798	
6.78586	  0.094002	  0.170528	  0.293578	
6.81912	  0.092135	  0.173292	  0.278100	
6.85238	  0.090284	  0.176283	  0.264858	
6.88565	  0.089040	  0.178505	  0.251956	
6.91891	  0.088913	  0.178390	  0.238195	
6.95218	  0.090002	  0.175982	  0.225499	
6.98544	  0.091657	  0.171474	  0.215223	
7.0187	  0.092849	  0.164220	  0.207776	
7.05197	  0.093774	  0.155152	  0.202405	
7.08523	  0.094868	  0.146349	  0.198182	
7.1185	  0.096206	  0.139753	  0.194323	
7.15176	  0.097557	  0.136912	  0.191472	
7.18502	  0.098877	  0.138361	  0.191194	
7.21829	  0.099980	  0.143529	  0.193971	
7.25155	  0.101377	  0.150983	  0.199295	
7.28482	  0.103571	  0.159012	  0.205769	
7.31808	  0.107194	  0.166923	  0.213727	
7.35134	  0.111856	  0.174442	  0.224139	
7.38461	  0.116796	  0.180240	  0.236647	
7.41787	  0.122071	  0.183030	  0.250069	
7.45114	  0.127929	  0.182801	  0.263822	
7.4844	  0.133536	  0.180144	  0.276280	
7.51766	  0.136717	  0.176321	  0.285574	
7.55093	  0.136576	  0.172652	  0.291737	
7.58419	  0.135156	  0.169167	  0.295313	
7.61746	  0.134788	  0.165462	  0.294896	
7.65072	  0.136805	  0.161973	  0.290517	
7.68398	  0.141651	  0.159367	  0.282467	
7.71725	  0.148688	  0.157675	  0.272529	
7.75051	  0.156597	  0.156481	  0.264335	
7.78378	  0.163482	  0.155370	  0.258870	
7.81704	  0.168840	  0.154518	  0.255220	
7.8503	  0.174664	  0.153951	  0.251952	
7.88357	  0.181765	  0.153230	  0.248787	
7.91683	  0.189366	  0.152450	  0.245302	
7.9501	  0.196060	  0.151688	  0.240395	
7.98336	  0.201217	  0.151236	  0.235542	
8.01662	  0.205012	  0.151666	  0.233722	
8.04989	  0.207989	  0.153177	  0.235459	
8.08315	  0.211890	  0.155778	  0.240230	
8.11642	  0.216799	  0.159218	  0.247566	
8.14968	  0.221917	  0.163027	  0.255876	
8.18294	  0.225793	  0.167190	  0.262944	
8.21621	  0.228794	  0.171999	  0.266687	
8.24947	  0.232457	  0.176875	  0.266989	
8.28274	  0.236815	  0.181076	  0.263756	
8.316	  0.241854	  0.184304	  0.258265	
8.34926	  0.247861	  0.186318	  0.252432	
8.38253	  0.252556	  0.186814	  0.248373	
8.41579	  0.253489	  0.186391	  0.247803	
8.44906	  0.251742	  0.186147	  0.249733	
8.48232	  0.248130	  0.186907	  0.252702	
8.51558	  0.244058	  0.189195	  0.257046	
8.54885	  0.240476	  0.192289	  0.262610	
8.58211	  0.238984	  0.195082	  0.268330	
8.61538	  0.240755	  0.197106	  0.273243	
8.64864	  0.245585	  0.198360	  0.277762	
8.6819	  0.252476	  0.199462	  0.283021	
8.71517	  0.260872	  0.200397	  0.288655	
8.74843	  0.269484	  0.199657	  0.293077	
8.7817	  0.278593	  0.197320	  0.296104	
8.81496	  0.289005	  0.194519	  0.297656	
8.84822	  0.300520	  0.191838	  0.298996	
8.88149	  0.312883	  0.189807	  0.302234	
8.91475	  0.323604	  0.189685	  0.306055	
8.94802	  0.331006	  0.192119	  0.308086	
8.98128	  0.333881	  0.197009	  0.307752	
9.01454	  0.331200	  0.203667	  0.305126	
9.04781	  0.323638	  0.211071	  0.301508	
9.08107	  0.312562	  0.218579	  0.298879	
9.11434	  0.300334	  0.225261	  0.299303	
9.1476	  0.288813	  0.230455	  0.304469	
9.18086	  0.280271	  0.234237	  0.314497	
9.21413	  0.274824	  0.237158	  0.326517	
9.24739	  0.270954	  0.238820	  0.337904	
9.28066	  0.269931	  0.238916	  0.348177	
9.31392	  0.274575	  0.237725	  0.357561	
9.34718	  0.284320	  0.235377	  0.366321	
9.38045	  0.295249	  0.232784	  0.375667	
9.41371	  0.303038	  0.230824	  0.386620	
9.44698	  0.307026	  0.230496	  0.398455	
9.48024	  0.307588	  0.232833	  0.411536	
9.5135	  0.305420	  0.237578	  0.426318	
9.54677	  0.301348	  0.242579	  0.442602	
9.58003	  0.294994	  0.245495	  0.462381	
9.6133	  0.286355	  0.244688	  0.486582	
9.64656	  0.277567	  0.240195	  0.513444	
9.67982	  0.272214	  0.233799	  0.537848	
9.71309	  0.270000	  0.228188	  0.556481	
9.74635	  0.269718	  0.226189	  0.569123	
9.77962	  0.271765	  0.228584	  0.572947	
9.81288	  0.274786	  0.234238	  0.566689	
9.84614	  0.279039	  0.241859	  0.554622	
9.87941	  0.284893	  0.250461	  0.539737	
9.91267	  0.290356	  0.258661	  0.523455	
9.94594	  0.295338	  0.264969	  0.507532	
9.9792	  0.302398	  0.267690	  0.494619	
10.0125	  0.311201	  0.266448	  0.487531	
10.0457	  0.319921	  0.262747	  0.486393	
10.079	  0.328100	  0.260465	  0.490087	
10.1123	  0.335333	  0.262503	  0.496337	
10.1455	  0.340923	  0.269033	  0.502537	
10.1788	  0.344771	  0.278689	  0.508688	
10.212	  0.346597	  0.289483	  0.515523	
10.2453	  0.345454	  0.298178	  0.523220	
10.2786	  0.342736	  0.302247	  0.530282	
10.3118	  0.338138	  0.303890	  0.535611	
10.3451	  0.330248	  0.304877	  0.541397	
10.3784	  0.321220	  0.305725	  0.547657	
10.4116	  0.314711	  0.305670	  0.552179	
10.4449	  0.310454	  0.303415	  0.553630	
10.4782	  0.307359	  0.298927	  0.552753	
10.5114	  0.306641	  0.292715	  0.548800	
10.5447	  0.307725	  0.285504	  0.541227	
10.578	  0.309081	  0.278279	  0.532538	
10.6112	  0.310092	  0.272152	  0.523940	
10.6445	  0.312192	  0.266889	  0.517335	
10.6777	  0.315719	  0.262148	  0.512400	
10.711	  0.320056	  0.257904	  0.508095	
10.7443	  0.325621	  0.254205	  0.504975	
10.7775	  0.332660	  0.251639	  0.502009	
10.8108	  0.341114	  0.249636	  0.495745	
10.8441	  0.350380	  0.247651	  0.484574	
10.8773	  0.356994	  0.245989	  0.471456	
10.9106	  0.361036	  0.244796	  0.460172	
10.9439	  0.364584	  0.243062	  0.450991	
10.9771	  0.367668	  0.240048	  0.442909	
11.0104	  0.370155	  0.234399	  0.435228	
11.0436	  0.371603	  0.225778	  0.425102	
11.0769	  0.370539	  0.215134	  0.408676	
11.1102	  0.363877	  0.204397	  0.384597	
11.1434	  0.349073	  0.194959	  0.355349	
11.1767	  0.327634	  0.187041	  0.323566	
11.21	  0.304301	  0.179673	  0.291260	
11.2432	  0.283479	  0.172179	  0.259120	
11.2765	  0.268528	  0.165164	  0.227171	
11.3098	  0.260714	  0.159142	  0.195655	
11.343	  0.258971	  0.154300	  0.165163	
11.3763	  0.261083	  0.150184	  0.137491	
11.4096	  0.264059	  0.146174	  0.113838	
11.4428	  0.267767	  0.140839	  0.094640	
11.4761	  0.272982	  0.133870	  0.080151	
11.5093	  0.280468	  0.126550	  0.070183	
11.5426	  0.290318	  0.120100	  0.063985	
11.5759	  0.301802	  0.115181	  0.060047	
11.6091	  0.311765	  0.111529	  0.057371	
11.6424	  0.318128	  0.108651	  0.055709	
11.6757	  0.319255	  0.106797	  0.054862	
11.7089	  0.313262	  0.106260	  0.054502	
11.7422	  0.302622	  0.106845	  0.054174	
11.7755	  0.290906	  0.107840	  0.053188	
11.8087	  0.279935	  0.108524	  0.051438	
11.842	  0.270520	  0.108868	  0.049441	
11.8752	  0.263585	  0.108848	  0.047637	
11.9085	  0.259028	  0.108538	  0.046262	
11.9418	  0.255661	  0.108340	  0.045318	
11.975	  0.254013	  0.108409	  0.044648	
12.0083	  0.255637	  0.108854	  0.044182	
12.0416	  0.260175	  0.109959	  0.043884	
